# xmcd
#
# Track frame offsets:
# 150
# 19209
# 39996
# 54207
# 76696
# 93347
# 114688
# 137619
# 153590
# 170979
# 190445
# 207026
# 222431
# 240670
# 255673
#
# Disc length: 3655 seconds
#
#
# Revision: 7
# Processed by: cddbd v1.5.1PL2 Copyright (c) Steve Scherf et al.
# Submitted via: FreeRIP 2.944 
#
DISCID=cb0e450f
DTITLE=Koncz Zsuzsa - Ég és föld között
DYEAR=1997
DGENRE=Vocal
TTITLE0=Kárvalló idõk
TTITLE1=Esik esõ
TTITLE2=Hol van már az egyszer volt
TTITLE3=Ég és föld között
TTITLE4=Valahol az úton
TTITLE5=Ha így is szeretnél
TTITLE6=Békét és reménységet
TTITLE7=Vigyázz rám
TTITLE8=Szavak
TTITLE9=Neked ég a tûz
TTITLE10=A történet vége
TTITLE11=Azt írja a barátom
TTITLE12=Ne nézd az órát
TTITLE13=Semmi sincs
TTITLE14=Istenhozzád
EXTD=Hungaroton HCD 37889\n(P) 1997
EXTT0=Tolcsvay László - Bródy János
EXTT1=Bornai Tibor
EXTT2=Gerendás Péter - Bródy János
EXTT3=Bódi László
EXTT4=Tolcsvay László - Bródy János
EXTT5=Bornai Tibor
EXTT6=Tolcsvay László - Bródy János
EXTT7=Dés László - Nemes István
EXTT8=Korom Attila
EXTT9=Bornai Tibor
EXTT10=Gerendás Péter - Bródy János
EXTT11=Korom Attila
EXTT12=Bornai Tibor
EXTT13=Tóth Zoltán - Bódi László
EXTT14=Tolcsvay László - Bródy János
PLAYORDER=
